<?xml version="1.0" encoding="utf-8"?>
<!-- Generator: Adobe Illustrator 26.0.1, SVG Export Plug-In . SVG Version: 6.00 Build 0)  -->
<svg version="1.1" id="Layer_1" xmlns="http://www.w3.org/2000/svg" xmlns:xlink="http://www.w3.org/1999/xlink" x="0px" y="0px"
	 viewBox="0 0 389 300.7" style="enable-background:new 0 0 389 300.7;" xml:space="preserve">
<style type="text/css">
	.st0{fill:#FFFFFF;}
	.st1{fill:none;}
	.st2{clip-path:url(#SVGID_00000088097423962417387060000006458693108192516029_);}
	.st3{fill:url(#SVGID_00000080164272735129622640000004726973363205472392_);}
</style>
<g>
	<path class="st0" d="M76.4,252l0.5-1.3l1.3-3.7h0.1l1,3.7l0.4,1.3H76.4L76.4,252z M76.7,243.5l-5.9,14.9h3.4l1.2-3.6h5.1l1,3.6h3.8
		l-5-14.9L76.7,243.5L76.7,243.5z"/>
	<g>
		<path class="st0" d="M63.5,218.2c0,0,0.8-0.7,1.5-1.5c0.7,0.8,1.5,1.5,1.5,1.5s1-0.9,1.8-1.8c-0.7-0.9-1.8-1.8-1.8-1.8
			s-0.8,0.7-1.5,1.5c-0.7-0.8-1.5-1.5-1.5-1.5s-1.1,0.9-1.7,1.8C62.5,217.3,63.5,218.2,63.5,218.2"/>
		<path class="st0" d="M63.9,227.7c3.8,0,6.5-0.3,8-1.4c0.9-0.7,1.7-1.9,1.7-3.6c0-1.4-0.3-3.8-0.6-5.3l-2.9,0.5
			c0.4,2.5,0.7,4.5,0.7,5.3c0,0.7-2.5,1.2-6.1,1.2c-4.5,0-5.7-1.2-5.7-3.1c0-1.6,1.1-3.5,1.1-3.5h-2.7c0,0-1.1,1.9-1.1,4.3
			S57.1,227.7,63.9,227.7"/>
		<path class="st0" d="M117.6,223.4c0.7-1.2,1.5-2.1,2.6-2.1c1.2,0,2.1,1.6,2.1,2.3c0,0.4-0.8,0.7-2,0.7c-1.1,0-2.1-0.2-2.8-0.6
			C117.6,223.6,117.6,223.5,117.6,223.4 M113.9,227.4L113.9,227.4c1-0.1,1.7-0.5,2.2-1.1c1.2,0.9,2.9,1.2,4.2,1.2
			c3.7,0,4.6-2.6,4.6-4.3c0-2.3-1.6-5.4-4.1-5.4c-2.2,0-3.3,1.9-4.4,4.1c-0.8,1.6-1.2,2-2.8,2H81.2c-1.9,0-2.4-0.4-2.4-2.4v-11.8
			l-3,0.2v9.8c0,5.8,1.4,7.5,4.8,7.5L113.9,227.4L113.9,227.4z"/>
		<path class="st0" d="M146.5,216.8c0,0,1.1-0.9,1.9-1.9c-0.8-1.1-1.9-1.9-1.9-1.9s-1.1,0.9-1.8,1.9
			C145.4,215.9,146.5,216.8,146.5,216.8"/>
		<path class="st0" d="M165.7,223.2c0,0.5-0.6,0.8-2.4,0.8c-2.4,0-2.5-1.2-2.6-3.1v-11l-3,0.2v13.2c0,0.5-0.6,0.8-2.4,0.8H155
			c-1.7,0-2.4-0.5-2.7-1.1h1.3l0.3-3.1h-1.3c-2.1,0-3.6-0.3-5.2-1c-1.6-0.7-3-1.4-4.7-1.4c-1.9,0-3.1,1-3.1,1v2.9
			c0,0,1.4-0.7,2.8-0.7s2.8,0.6,4.3,1.3c0.2,0.1,0.4,0.2,0.6,0.2c-0.7,0.3-1.4,0.6-2,0.8c-1.8,0.7-3.8,1.1-6.6,1.1h-0.3
			c-2.1,0-2.4-0.7-3.4-3.7l-1.4-4.5l-3,0.4c0,0,1.6,5.3,2.3,7.5c-0.6,0.2-1.6,0.4-3.1,0.4c-2.1,0-3.4-0.4-3.8-0.6l0.2,3.3
			c0.4,0.2,1.6,0.7,3.5,0.7c1.6,0,2.8-0.4,3.4-0.8c0.5-0.4,0.9-0.9,1.1-1.5c0.9,1.8,2.4,2.2,4.1,2.2h0.3c3.2,0,5.3-0.7,7.7-2.2
			c1.6-0.9,3.2-1.8,4.5-2.2c0.1,2.4,1.1,4.3,4.1,4.3h0.4c1.8,0,2.9-0.5,3.4-0.9c0.4-0.3,0.7-0.6,1-1.1c0.6,1.4,1.6,2.1,3.5,2.1
			s2.9-0.5,3.4-0.9c1.1-0.8,1.9-2.3,1.9-4.8v-11.8l-3,0.2L165.7,223.2L165.7,223.2z"/>
		<path class="st0" d="M182.6,219.4c0,0.5,0,1,0,1.3c0,0.5,0.1,1.1,0.1,1.6c-0.5,0.1-1.2,0.3-2.2,0.3c-1.1,0-2-0.4-2-0.7
			C178.5,221.5,179.8,220.4,182.6,219.4 M180.4,225.8c1.5,0,2.5-0.6,2.9-0.9c0.7,1.6,2,2.4,4.2,2.5h0.1c0.1,0,0.1,0,0.1,0
			c0,0,0.1,0,0.1,0h0c1.4,0,2.3-0.3,2.9-0.8c0.3-0.2,0.5-0.5,0.7-0.7c0.9,1.2,2.4,1.5,3.8,1.6l0,0h4.5l0,0c1.5-0.1,2.6-0.5,3.3-1.1
			c0.8-0.7,1.6-2,1.6-3.8c0-1.4-0.4-3.7-0.6-5.2l-2.9,0.5c0.4,2.5,0.7,4.6,0.7,5.5c0,0.4-0.6,0.8-2.5,0.8h-3.6c-1,0-2-0.1-2.7-0.5
			l0.4-4.5h-2.9c-0.1,0.8-0.3,3.3-0.5,4.1c-0.1,0.4-0.5,0.9-2.3,0.9c-2,0-2.3-0.9-2.3-2.6v-6.7l-2.9,0.2v1.6c-1.9,0.9-4.1,2-5.2,3.7
			c-0.8,1.2-0.7,3-0.1,4.2C177.9,225.2,178.9,225.8,180.4,225.8"/>
		<path class="st0" d="M180.4,213.9c0,0,0.8-0.7,1.5-1.5c0.7,0.8,1.5,1.5,1.5,1.5s1-0.9,1.8-1.8c-0.7-0.9-1.8-1.8-1.8-1.8
			s-0.8,0.7-1.5,1.5c-0.7-0.8-1.5-1.5-1.5-1.5s-1.1,0.9-1.7,1.8C179.3,213,180.4,213.9,180.4,213.9"/>
		<path class="st0" d="M191.4,230.1c-0.7-0.8-1.4-1.4-1.4-1.4s-1,0.8-1.7,1.8c0.7,0.9,1.7,1.7,1.7,1.7s0.8-0.7,1.4-1.4
			c0.6,0.8,1.4,1.4,1.4,1.4s1-0.8,1.7-1.7c-0.7-0.9-1.7-1.8-1.7-1.8S192,229.3,191.4,230.1"/>
		<path class="st0" d="M201.5,228.4c0,0-1.1,0.9-1.8,1.9c0.7,1,1.8,1.9,1.8,1.9s1.1-0.9,1.9-1.9
			C202.6,229.3,201.5,228.4,201.5,228.4"/>
		<path class="st0" d="M221.3,222.1c-0.6-0.5-1.2-1.1-1.9-1.6c0.9-0.2,2-0.3,3.3-0.3c1.4,0,2.5,0.1,3.4,0.4c-0.8,1.1-2.1,2-3.5,2.6
			C222.2,222.9,221.8,222.5,221.3,222.1 M231.7,223.2c0,0.5-0.6,0.8-2.4,0.8h-2.9c-0.5,0-0.8,0-1.2,0c1.8-1.3,2.6-2.6,2.8-3.2
			c0.2-0.5,0.2-2.1,0.2-2.7c-0.8-0.5-2.8-1-5.3-1s-5.5,0.7-6.2,1.1v2.9c1.1,0.8,2.3,2,3.3,2.9c-0.7,0.1-1.5,0.1-2.4,0.1h-1.9
			c-2.1,0-2.7-0.9-3.1-2.1l-0.6-2.7l-2.9,0.5c0.6,2.6,1.1,4.3,1.1,4.8c0,2.2-1.1,4.5-3.7,4.5c-1,0-1.7-0.2-1.8-0.3l0.2,3.2
			c0,0,0.7,0.4,1.9,0.4c3.9,0,5.4-3.4,5.9-5.8c0-0.1,0.1-0.2,0.1-0.3c0.7,0.7,1.6,1.1,2.9,1.1h0.4c2.5,0,4.4-0.6,6.2-1.5
			c1.4,1.1,2.8,1.5,5.5,1.5h1.6c1.8,0,2.9-0.5,3.4-0.9c1.1-0.8,1.9-2.3,1.9-4.8v-11.8l-3,0.2L231.7,223.2L231.7,223.2z"/>
	</g>
	<polygon class="st0" points="240.2,209.9 237.3,210.1 237.3,227.4 240.2,227.4 	"/>
	<g>
		<path class="st0" d="M248.5,232.4c3.9,0,5.4-3.4,5.9-5.8c0.3-1.4,0.3-3,0.1-3.9c-0.3-1.8-1.2-4.3-1.2-4.3l-2.9,0.6
			c1,3.4,1.6,5,1.6,5.5c0,2.2-1.1,4.5-3.7,4.5c-1,0-1.7-0.2-1.8-0.3l0.2,3.2C246.7,232,247.4,232.4,248.5,232.4"/>
		<path class="st0" d="M251.8,217.2c0,0,1.1-0.9,1.9-1.9c-0.8-1.1-1.9-1.9-1.9-1.9s-1.1,0.9-1.8,1.9
			C250.7,216.4,251.8,217.2,251.8,217.2"/>
		<path class="st0" d="M293.7,227.4h0.4c3.2,0,5.2-0.8,7.6-2.2c1.9-1.1,3.6-2,5-2.3h2.2l0.3-3.2h-1.3c-2.1,0-3.6-0.3-5.2-1
			c-1.6-0.7-3-1.4-4.7-1.4c-1.9,0-3.1,1-3.1,1v2.9c0,0,1.4-0.7,2.8-0.7s2.8,0.6,4.3,1.3c0.2,0.1,0.4,0.2,0.6,0.3
			c-0.7,0.3-1.4,0.6-2,0.8c-1.8,0.7-3.7,1.1-6.6,1.1h-32.2c-1.9,0-2.4-0.4-2.4-2.4v-11.8l-3,0.2v9.8c0,5.8,1.5,7.5,4.8,7.5
			L293.7,227.4L293.7,227.4z"/>
		<path class="st0" d="M302.9,227.4c0.7,1,1.8,1.9,1.8,1.9s1.1-0.9,1.9-1.9c-0.8-1.1-1.9-1.9-1.9-1.9S303.6,226.3,302.9,227.4"/>
		<path class="st0" d="M66.2,255.7c-0.5,0.1-0.9,0.1-1.4,0.1c-3,0-4.6-1.9-4.6-5.1s2.1-4.8,4.5-4.8c1.6,0,3.5,0.3,5,1.3v-3.2
			c-1-0.4-2.8-0.9-5-0.9c-5,0-8.2,3.2-8.2,8s3.1,7.5,7.8,7.5c2,0,3.8-0.5,5.5-1.4v-6.7h-3.6L66.2,255.7L66.2,255.7z"/>
	</g>
	<path class="st0" d="M92.8,249.4c-1.8-0.6-2.6-1-2.6-1.9s1.2-1.4,2.5-1.4c1.6,0,3.4,0.5,4.3,1.1v-3c-1-0.5-2.7-0.9-4.7-0.9
		c-2.9,0-5.5,1.7-5.5,4.6c0,2.6,1.6,3.6,3.7,4.3c2,0.7,3.8,1,3.8,2.2c0,1-1,1.6-2.3,1.6c-1.6,0-3.8-0.5-4.9-1.1v2.9
		c1.5,0.6,3,0.9,4.6,0.9c3.2,0,6-1.4,6-4.6C97.5,251,95,250,92.8,249.4"/>
	<path class="st0" d="M108.8,252l0.5-1.3l1.3-3.7h0.1l1,3.7l0.4,1.3H108.8L108.8,252z M109.1,243.5l-5.9,14.9h3.4l1.2-3.6h5.1l1,3.6
		h3.8l-5-14.9L109.1,243.5L109.1,243.5z"/>
	<path class="st0" d="M124.2,250.9h-0.5v-4.9h0.7c2.2,0,3.3,0.8,3.3,2.4C127.7,250.4,126.4,250.9,124.2,250.9 M131.4,248.4
		c0-3.2-2.2-4.9-5.5-4.9h-5.9v14.9h3.6v-4.8h1.3c0.3,0,0.6,0,0.9,0l2.6,4.8h4l-3.6-5.7C130.6,251.7,131.5,250.1,131.4,248.4"/>
	<path class="st0" d="M138.5,252l0.5-1.3l1.3-3.7h0.1l1,3.7l0.4,1.3H138.5L138.5,252z M138.8,243.5l-5.9,14.9h3.4l1.2-3.6h5.1l1,3.6
		h3.8l-5-14.9L138.8,243.5L138.8,243.5z"/>
	<path class="st0" d="M154.9,255.7h-1.5V252h0.9c2.4,0,3.7,0.3,3.7,1.8S156.8,255.7,154.9,255.7 M153.4,246.1h1
		c1.6,0,2.7,0.5,2.7,1.8c0,1.1-0.9,1.7-2.9,1.7h-0.8L153.4,246.1L153.4,246.1z M158.2,250.4L158.2,250.4c1.5-0.5,2.5-1.7,2.5-3.3
		c0-2.4-2-3.7-5.4-3.7h-5.6v14.9h6.1c4,0,5.8-1.8,5.8-4.2C161.6,251.4,159.6,250.6,158.2,250.4"/>
	<rect x="164.3" y="243.5" class="st0" width="3.6" height="14.9"/>
	<path class="st0" d="M175.4,252l0.5-1.3l1.3-3.7h0.1l1,3.7l0.4,1.3H175.4L175.4,252z M175.6,243.5l-5.9,14.9h3.4l1.2-3.6h5.1l1,3.6
		h3.8l-5-14.9L175.6,243.5L175.6,243.5z"/>
	<polygon class="st0" points="196.9,252.5 196.9,252.5 189.6,243.5 186.6,243.5 186.6,258.3 189.8,258.3 189.8,249.1 189.9,249.1 
		197.1,258.3 200.2,258.3 200.2,243.5 196.9,243.5 	"/>
	<path class="st0" d="M214.6,249.4c-1.8-0.6-2.6-1-2.6-1.9s1.2-1.4,2.5-1.4c1.6,0,3.4,0.5,4.3,1.1v-3c-1-0.5-2.7-0.9-4.7-0.9
		c-2.9,0-5.5,1.7-5.5,4.6c0,2.6,1.6,3.6,3.7,4.3c2,0.7,3.8,1,3.8,2.2c0,1-1,1.6-2.4,1.6c-1.6,0-3.8-0.5-4.9-1.1v2.9
		c1.5,0.6,3,0.9,4.6,0.9c3.2,0,6-1.4,6-4.6C219.3,251,216.8,250,214.6,249.4"/>
	<polygon class="st0" points="225.7,252.1 231,252.1 231,249.5 225.7,249.5 225.7,246.2 232.2,246.2 232.2,243.5 222.1,243.5 
		222.1,258.3 232.4,258.3 232.4,255.6 225.7,255.6 	"/>
	<path class="st0" d="M239.3,250.9h-0.5v-4.9h0.7c2.2,0,3.3,0.8,3.3,2.4C242.8,250.4,241.5,250.9,239.3,250.9 M246.5,248.4
		c0-3.2-2.2-4.9-5.5-4.9h-5.9v14.9h3.6v-4.8h1.3c0.3,0,0.6,0,0.9,0l2.6,4.8h4l-3.6-5.7C245.7,251.7,246.5,250.1,246.5,248.4"/>
	<polygon class="st0" points="256.5,251.3 255.4,254.7 255.3,254.7 254.2,251.2 251.9,243.5 247.8,243.5 253.1,258.3 256.9,258.3 
		263,243.5 259.2,243.5 	"/>
	<rect x="264.8" y="243.5" class="st0" width="3.6" height="14.9"/>
	<path class="st0" d="M271.2,251.1c0,5,3.1,7.5,7.8,7.5c2,0,3.9-0.5,4.7-1v-2.9c-1.5,0.9-2.6,1.1-4.2,1.1c-2.7,0-4.5-1.6-4.5-5.1
		c0-3.2,1.9-4.8,4.3-4.8c1.6,0,3,0.3,4.5,1.2V244c-1-0.4-2.3-0.8-4.5-0.8C274.2,243.2,271.2,246.4,271.2,251.1"/>
	<polygon class="st0" points="290.2,252.1 295.4,252.1 295.4,249.5 290.2,249.5 290.2,246.2 296.6,246.2 296.6,243.5 286.6,243.5 
		286.6,258.3 296.8,258.3 296.8,255.6 290.2,255.6 	"/>
	<path class="st0" d="M304.9,249.4c-1.8-0.6-2.6-1-2.6-1.9s1.2-1.4,2.5-1.4c1.6,0,3.4,0.5,4.3,1.1v-3c-1-0.5-2.7-0.9-4.7-0.9
		c-2.9,0-5.5,1.7-5.5,4.6c0,2.6,1.6,3.6,3.7,4.3c2,0.7,3.8,1,3.8,2.2c0,1-1,1.6-2.4,1.6c-1.6,0-3.8-0.5-4.9-1.1v2.9
		c1.5,0.6,3,0.9,4.6,0.9c3.2,0,6-1.4,6-4.6C309.6,251,307.1,250,304.9,249.4"/>
</g>
<g>
	<path class="st0" d="M80.7,77.2c7.1-0.6,13.6,3.4,13.5,11.1C93.9,100.1,75,101,71.4,91C68.8,83.5,73.1,77.8,80.7,77.2L80.7,77.2z"
		/>
	<g>
		<path class="st0" d="M131.1,83.9l7.8,55.1H267c1.1-7.2-0.4-16.1-6.6-20.7c-5-3.6-11.2-3.4-16.8-1.4c-2.5,0.9-4.6,2.2-6.8,3.6
			l-10.2-13.5v-0.3c5.5-4.8,13.2-8.4,20.5-9.4c8.2-1.2,17.2,0.4,24.6,4.2l18.4,47.5c-0.6,4.6-1.9,9-3,13.4l-164.4,0l-11.5-78.4
			L131.1,83.9L131.1,83.9z"/>
		<path class="st0" d="M95.3,104.3l5.3,39.8c5.4,21.5,1.9,38.5-21.8,43.6c-5.3,1.1-10.6,0.8-15.9,0.1l-3.9-17.3
			c4,0.2,8.3,0.6,12.3-0.3c6.6-1.4,11.9-7.6,11.5-14.4l-7.2-51.5C75.5,104.3,95.3,104.3,95.3,104.3z"/>
		<path class="st0" d="M261.3,169.8c6.1-0.7,12.9,1.3,14.3,7.9c2.2,10-7.1,14.5-15.6,11.9C249.7,186.6,249.8,171,261.3,169.8z"/>
		<g>
			<rect x="171.4" y="30.3" class="st1" width="223.9" height="223.9"/>
			<g>
				<defs>
					<path id="SVGID_1_" d="M333.1,118.8c17.6,48,13.4,96.3-5.9,126.2L241.1,23.1C277.4,30.5,314.3,67.6,333.1,118.8"/>
				</defs>
				<clipPath id="SVGID_00000088125864531072688340000006085881949114550929_">
					<use xlink:href="#SVGID_1_"  style="overflow:visible;"/>
				</clipPath>
				<g style="clip-path:url(#SVGID_00000088125864531072688340000006085881949114550929_);">
					<g>
						
							<radialGradient id="SVGID_00000152242117673505166520000005166363130312431037_" cx="-494.7171" cy="1.216" r="0.6" gradientTransform="matrix(-134.465 49.3936 74.4127 202.5752 -66355.1172 24335.998)" gradientUnits="userSpaceOnUse">
							<stop  offset="0" style="stop-color:#1299CD"/>
							<stop  offset="0.55" style="stop-color:#1299CD"/>
							<stop  offset="0.58" style="stop-color:#1299CD;stop-opacity:0.91"/>
							<stop  offset="0.69" style="stop-color:#1299CD;stop-opacity:0.59"/>
							<stop  offset="0.79" style="stop-color:#1299CD;stop-opacity:0.33"/>
							<stop  offset="0.88" style="stop-color:#1299CD;stop-opacity:0.15"/>
							<stop  offset="0.95" style="stop-color:#1299CD;stop-opacity:4.000000e-02"/>
							<stop  offset="1" style="stop-color:#1299CD;stop-opacity:0"/>
						</radialGradient>
						<polygon style="fill:url(#SVGID_00000152242117673505166520000005166363130312431037_);" points="169.4,50.3 337.7,-11.5 
							422.3,218.7 254,280.5 						"/>
					</g>
				</g>
			</g>
		</g>
	</g>
</g>
</svg>
